<svg width="20" height="20" viewBox="0 0 20 20" fill="none" xmlns="http://www.w3.org/2000/svg">
<g id="Iconsax/Linear/instagram">
<path id="Vector" d="M7.49739 18.3337H12.4974C16.6641 18.3337 18.3307 16.667 18.3307 12.5003V7.50032C18.3307 3.33366 16.6641 1.66699 12.4974 1.66699H7.49739C3.33073 1.66699 1.66406 3.33366 1.66406 7.50032V12.5003C1.66406 16.667 3.33073 18.3337 7.49739 18.3337Z" stroke="#535D69" stroke-width="1.2" stroke-linecap="round" stroke-linejoin="round"/>
<path id="Vector_2" d="M10.0026 12.9163C10.3856 12.9163 10.7649 12.8409 11.1188 12.6943C11.4726 12.5477 11.7942 12.3329 12.065 12.0621C12.3358 11.7912 12.5507 11.4697 12.6973 11.1158C12.8438 10.762 12.9193 10.3827 12.9193 9.99967C12.9193 9.61665 12.8438 9.23738 12.6973 8.88351C12.5507 8.52965 12.3358 8.20812 12.065 7.93728C11.7942 7.66644 11.4726 7.4516 11.1188 7.30503C10.7649 7.15845 10.3856 7.08301 10.0026 7.08301C9.22906 7.08301 8.48719 7.3903 7.94021 7.93728C7.39323 8.48426 7.08594 9.22613 7.08594 9.99967C7.08594 10.7732 7.39323 11.5151 7.94021 12.0621C8.48719 12.6091 9.22906 12.9163 10.0026 12.9163Z" stroke="#535D69" stroke-width="1.2" stroke-linecap="round" stroke-linejoin="round"/>
<path id="Vector_3" d="M14.6953 5.83301H14.7073" stroke="#535D69" stroke-width="1.2" stroke-linecap="round" stroke-linejoin="round"/>
</g>
</svg>
