<svg width="20" height="20" viewBox="0 0 20 20" fill="none" xmlns="http://www.w3.org/2000/svg">
<g id="Iconsax/Outline/sms">
<path id="Vector" d="M14.168 17.7087H5.83463C2.79297 17.7087 1.04297 15.9587 1.04297 12.917V7.08366C1.04297 4.04199 2.79297 2.29199 5.83463 2.29199H14.168C17.2096 2.29199 18.9596 4.04199 18.9596 7.08366V12.917C18.9596 15.9587 17.2096 17.7087 14.168 17.7087ZM5.83463 3.54199C3.4513 3.54199 2.29297 4.70033 2.29297 7.08366V12.917C2.29297 15.3003 3.4513 16.4587 5.83463 16.4587H14.168C16.5513 16.4587 17.7096 15.3003 17.7096 12.917V7.08366C17.7096 4.70033 16.5513 3.54199 14.168 3.54199H5.83463Z" fill="#B7076B"/>
<path id="Vector_2" d="M9.99955 10.723C9.29955 10.723 8.59122 10.5064 8.04955 10.0647L5.44122 7.98136C5.31993 7.87604 5.24398 7.72796 5.2292 7.56801C5.21443 7.40806 5.26198 7.24857 5.36194 7.12283C5.46189 6.99708 5.60653 6.91477 5.76569 6.89307C5.92486 6.87137 6.08625 6.91195 6.21622 7.00636L8.82455 9.08969C9.45789 9.59802 10.5329 9.59802 11.1662 9.08969L13.7746 7.00636C14.0412 6.78969 14.4412 6.83136 14.6496 7.10636C14.8662 7.37302 14.8246 7.77302 14.5496 7.98136L11.9412 10.0647C11.4079 10.5064 10.6996 10.723 9.99955 10.723Z" fill="#B7076B"/>
</g>
</svg>
