<svg width="128" height="128" viewBox="0 0 128 128" fill="none" xmlns="http://www.w3.org/2000/svg">
<path d="M64 10.6667C93.3951 10.6667 117.333 34.5934 117.333 64.031C117.333 93.4067 93.3951 117.333 64 117.333C34.6049 117.333 10.6667 93.4067 10.6667 64.031C10.6667 34.5934 34.6049 10.6667 64 10.6667ZM57.9254 42.8263C56.7928 42.8263 55.7117 43.0835 54.6821 43.5981C53.3951 44.3185 52.3655 45.4505 51.7992 46.7883C51.4389 47.7145 50.8726 50.4931 50.8726 50.5445C50.3063 53.5804 49.9974 58.5201 49.9974 63.9744C49.9974 69.1765 50.3063 73.9052 50.7696 76.9925C50.8211 77.044 51.3874 80.4915 52.0052 81.6749C53.1377 83.8361 55.3514 85.1739 57.7194 85.1739H57.9254C59.4698 85.1224 62.713 83.7846 62.713 83.7332C68.1699 81.4691 78.9292 74.4198 83.2536 69.7373L83.5624 69.4286C84.1287 68.8626 84.8494 67.9879 85.0039 67.782C85.8276 66.7015 86.2394 65.3636 86.2394 64.031C86.2394 62.5336 85.7761 61.1443 84.9009 60.0123C84.695 59.8065 83.9228 58.9317 83.2021 58.2114C78.9807 53.6833 67.964 46.2738 62.1982 44.0097C61.3231 43.6547 59.1094 42.8777 57.9254 42.8263Z" fill="white"/>
</svg>
