<svg width="12" height="12" viewBox="0 0 12 12" fill="none" xmlns="http://www.w3.org/2000/svg">
<g id="vuesax/linear/star">
<g id="star">
<path id="Vector" d="M6.86544 1.75507L7.74544 3.51507C7.86544 3.76007 8.18544 3.99507 8.45544 4.04007L10.0504 4.30507C11.0704 4.47507 11.3104 5.21507 10.5754 5.94507L9.33544 7.18507C9.12544 7.39507 9.01044 7.80007 9.07544 8.09007L9.43044 9.62507C9.71044 10.8401 9.06544 11.3101 7.99044 10.6751L6.49544 9.79007C6.22544 9.63007 5.78044 9.63007 5.50544 9.79007L4.01044 10.6751C2.94044 11.3101 2.29044 10.8351 2.57044 9.62507L2.92544 8.09007C2.99044 7.80007 2.87544 7.39507 2.66544 7.18507L1.42544 5.94507C0.695443 5.21507 0.930443 4.47507 1.95044 4.30507L3.54544 4.04007C3.81044 3.99507 4.13044 3.76007 4.25044 3.51507L5.13044 1.75507C5.61044 0.800068 6.39044 0.800068 6.86544 1.75507Z" fill="#FEC84B"/>
</g>
</g>
</svg>
